<svg width="140" height="91" viewBox="0 0 140 91" fill="none" xmlns="http://www.w3.org/2000/svg">
<path d="M1.37262 90.7227C3.83215 82.3259 14.7349 62.438 38.6698 50.0604C68.5883 34.5885 113.669 33.0851 138.848 0.385646" stroke="white"/>
</svg>
<svg width="94" height="138" viewBox="0 0 94 138" fill="none" xmlns="http://www.w3.org/2000/svg">
<path d="M0.415049 137.492C18.9482 132.21 59.9407 110.566 75.6458 66.2468C91.3509 21.9274 93.7113 4.02745 92.9284 0.617391" stroke="white"/>
</svg>


<svg width="140" height="138" viewBox="0 0 140 138" fill="none" xmlns="http://www.w3.org/2000/svg">
<path d="M1.37262 90.7227C3.83215 82.3259 14.7349 62.438 38.6698 50.0604C68.5883 34.5885 113.669 33.0851 138.848 0.385646" stroke="white"/>
<path d="M0.415049 137.492C18.9482 132.21 59.9407 110.566 75.6458 66.2468C91.3509 21.9274 93.7113 4.02745 92.9284 0.617391" stroke="white"/>
</svg>
