<svg width="140" height="138" viewBox="0 0 140 138" fill="none" xmlns="http://www.w3.org/2000/svg">
<path fill-rule="evenodd" clip-rule="evenodd" d="M95.4286 65.3619C93.7505 66.0001 92.0632 66.6152 90.3699 67.2118C84.3187 69.3438 78.2096 71.2337 72.1863 73.0972L72.1853 73.0975C69.1799 74.0272 66.1959 74.9504 63.2511 75.8937C54.4186 78.7231 45.9585 81.7283 38.4401 85.6163C14.3732 98.0621 3.3872 118.066 0.892783 126.582L1.85246 126.863C4.2771 118.586 15.0966 98.8138 38.8994 86.5046C46.3403 82.6566 54.7347 79.6719 63.5562 76.8461C66.4812 75.9091 69.4554 74.9889 72.4563 74.0605C78.4909 72.1935 84.6336 70.2931 90.7022 68.155C92.1353 67.65 93.5652 67.1316 94.9898 66.5968C79.2226 110.363 38.6452 131.777 20.278 137.011L20.5521 137.973C39.179 132.664 80.3395 110.938 96.1171 66.4138C96.1505 66.3195 96.1838 66.2254 96.2171 66.1314C112.424 59.9231 127.852 51.4857 139.244 36.6907L138.452 36.0806C127.404 50.4282 112.487 58.7428 96.6553 64.8905C104.181 43.5275 108.553 28.4286 110.957 18.2056C112.187 12.9738 112.903 9.01333 113.263 6.14027C113.619 3.29125 113.633 1.45326 113.416 0.505505L112.441 0.72928C112.615 1.48654 112.627 3.16483 112.271 6.01612C111.917 8.84336 111.208 12.7672 109.983 17.9767C107.56 28.2818 103.121 43.595 95.4286 65.3619Z" fill="white"/>
</svg>
