<svg width="48" height="49" viewBox="0 0 48 49" fill="none" xmlns="http://www.w3.org/2000/svg">
<path fill-rule="evenodd" clip-rule="evenodd" d="M47 24.0076C47 36.7101 36.7025 47.0076 24 47.0076C11.2975 47.0076 1 36.7101 1 24.0076C1 11.305 11.2975 1.00757 24 1.00757C36.7025 1.00757 47 11.305 47 24.0076ZM48 24.0076C48 37.2624 37.2548 48.0076 24 48.0076C10.7452 48.0076 0 37.2624 0 24.0076C0 10.7527 10.7452 0.00756836 24 0.00756836C37.2548 0.00756836 48 10.7527 48 24.0076ZM28 24C28 21.7909 26.2091 20 24 20C21.7909 20 20 21.7909 20 24C20 26.2091 21.7909 28 24 28C26.2091 28 28 26.2091 28 24ZM29 24C29 21.2386 26.7614 19 24 19C21.2386 19 19 21.2386 19 24C19 26.7614 21.2386 29 24 29C26.7614 29 29 26.7614 29 24Z" fill="white"/>
</svg>
