<?xml version="1.0" encoding="utf-8"?><svg viewBox="0 0 191 81" xmlns="http://www.w3.org/2000/svg" xmlns:xlink="http://www.w3.org/1999/xlink"><style>:root>svg{display:none}:root>svg:target{display:block}</style><svg viewBox="0 0 67 67" id="+" xmlns="http://www.w3.org/2000/svg"><circle cx="32.882" cy="33.471" r="24.479"/><path d="M33.029 66.942V0m33.913 34.029H0"/></svg>
<svg viewBox="0 0 191 31" id="Logo" xmlns="http://www.w3.org/2000/svg"><path d="M43 25V4h5.55v7.8h8.1V4h5.55v21h-5.55v-8.1h-8.1V25H43zM65.486 5.2c0-.72.27-1.32.81-1.8.54-.5 1.22-.75 2.04-.75.82 0 1.5.25 2.04.75.54.48.81 1.08.81 1.8 0 .7-.27 1.3-.81 1.8s-1.22.75-2.04.75c-.82 0-1.5-.25-2.04-.75s-.81-1.1-.81-1.8zm.3 19.8V9.4h5.1V25h-5.1zm9.668-2.37c-1.34-1.48-2.01-3.39-2.01-5.73 0-2.34.67-4.25 2.01-5.73 1.34-1.48 2.97-2.22 4.89-2.22 1.38 0 2.57.4 3.57 1.2.46.36.82.76 1.08 1.2h.3V9.4h5.1v21.3h-14.85v-4.05h9.75V22.6h-.3c-.28.44-.64.82-1.08 1.14-.98.74-2.17 1.11-3.57 1.11-1.92 0-3.55-.74-4.89-2.22zm4.14-8.37c-.6.64-.9 1.52-.9 2.64s.3 2 .9 2.64c.6.64 1.4.96 2.4.96s1.8-.32 2.4-.96c.6-.64.9-1.52.9-2.64s-.3-2-.9-2.64c-.6-.64-1.4-.96-2.4-.96s-1.8.32-2.4.96zM93.38 25V4h5.1v7.5h.3c.28-.48.64-.9 1.08-1.26 1.02-.86 2.21-1.29 3.57-1.29 1.84 0 3.27.56 4.29 1.68 1.04 1.1 1.56 2.69 1.56 4.77V25h-5.1v-8.85c0-.9-.24-1.6-.72-2.1s-1.14-.75-1.98-.75c-.86 0-1.58.32-2.16.96-.56.62-.84 1.45-.84 2.49V25h-5.1zm27.158 5.7V9.4h5.1v2.1h.3c.28-.46.66-.88 1.14-1.26 1.1-.86 2.27-1.29 3.51-1.29 1.92 0 3.55.76 4.89 2.28 1.34 1.5 2.01 3.49 2.01 5.97 0 2.48-.67 4.48-2.01 6-1.34 1.5-2.97 2.25-4.89 2.25-1.26 0-2.43-.42-3.51-1.26a4.61 4.61 0 01-1.14-1.29h-.3v7.8h-5.1zm6-16.38c-.6.68-.9 1.64-.9 2.88s.3 2.2.9 2.88c.6.68 1.4 1.02 2.4 1.02s1.8-.34 2.4-1.02c.6-.68.9-1.64.9-2.88s-.3-2.2-.9-2.88c-.6-.68-1.4-1.02-2.4-1.02s-1.8.34-2.4 1.02zm14.746 8.88c-1.34-1.52-2.01-3.52-2.01-6s.67-4.47 2.01-5.97c1.34-1.52 2.97-2.28 4.89-2.28 1.24 0 2.41.43 3.51 1.29.46.38.84.8 1.14 1.26h.3V9.4h5.1V25h-5.1v-2.1h-.3c-.28.48-.66.91-1.14 1.29-1.08.84-2.25 1.26-3.51 1.26-1.92 0-3.55-.75-4.89-2.25zm4.14-8.88c-.6.68-.9 1.64-.9 2.88s.3 2.2.9 2.88c.6.68 1.4 1.02 2.4 1.02s1.8-.34 2.4-1.02c.6-.68.9-1.64.9-2.88s-.3-2.2-.9-2.88c-.6-.68-1.4-1.02-2.4-1.02s-1.8.34-2.4 1.02zm12.886 5.58h5.1c.08.3.25.58.51.84.54.54 1.32.81 2.34.81 1.4 0 2.1-.35 2.1-1.05 0-.32-.2-.57-.6-.75-.4-.2-1-.4-1.8-.6-.66-.16-1.09-.26-1.29-.3-.2-.04-.62-.15-1.26-.33-.64-.2-1.1-.37-1.38-.51-.26-.16-.63-.38-1.11-.66-.46-.3-.8-.6-1.02-.9-.2-.32-.39-.71-.57-1.17-.18-.48-.27-.99-.27-1.53 0-1.32.59-2.45 1.77-3.39 1.18-.94 2.84-1.41 4.98-1.41 2.68 0 4.8.88 6.36 2.64a6.53 6.53 0 011.29 2.61h-4.95c-.12-.32-.26-.57-.42-.75-.46-.5-1.12-.75-1.98-.75-1.2 0-1.8.35-1.8 1.05 0 .34.2.6.6.78.4.18 1.01.35 1.83.51 2.06.48 3.45.9 4.17 1.26 1.8.88 2.7 2.23 2.7 4.05 0 1.44-.64 2.65-1.92 3.63-1.26.98-3.07 1.47-5.43 1.47-2.9 0-5.11-.92-6.63-2.76a6.113 6.113 0 01-1.32-2.79zm16.641 0h5.1c.08.3.25.58.51.84.54.54 1.32.81 2.34.81 1.4 0 2.1-.35 2.1-1.05 0-.32-.2-.57-.6-.75-.4-.2-1-.4-1.8-.6-.66-.16-1.09-.26-1.29-.3-.2-.04-.62-.15-1.26-.33-.64-.2-1.1-.37-1.38-.51-.26-.16-.63-.38-1.11-.66-.46-.3-.8-.6-1.02-.9-.2-.32-.39-.71-.57-1.17-.18-.48-.27-.99-.27-1.53 0-1.32.59-2.45 1.77-3.39 1.18-.94 2.84-1.41 4.98-1.41 2.68 0 4.8.88 6.36 2.64a6.53 6.53 0 011.29 2.61h-4.95c-.12-.32-.26-.57-.42-.75-.46-.5-1.12-.75-1.98-.75-1.2 0-1.8.35-1.8 1.05 0 .34.2.6.6.78.4.18 1.01.35 1.83.51 2.06.48 3.45.9 4.17 1.26 1.8.88 2.7 2.23 2.7 4.05 0 1.44-.64 2.65-1.92 3.63-1.26.98-3.07 1.47-5.43 1.47-2.9 0-5.11-.92-6.63-2.76a6.113 6.113 0 01-1.32-2.79z"/><path fill-rule="evenodd" clip-rule="evenodd" d="M6 6v18h18L6 6zM0 0v30h30V0H0z"/></svg>
<svg viewBox="0 0 68 67" id="arrow" xmlns="http://www.w3.org/2000/svg"><path d="M0 66.5h68M35.5 58V0M.5 24.5l35 33.5 32-33.5"/></svg>
<svg viewBox="0 0 68 45" id="burger" xmlns="http://www.w3.org/2000/svg">
<!-- <path d="M1 4.4837C6.3473 2.88065 14.9897 1.17301 21.32 2.8695C30.8501 5.4235 38.9139 13.6762 52.957 11.1048C58.5783 10.0755 63.3366 8.24065 67 6.36585" stroke="#47093E" stroke-width="3"/>
<path d="M1 20.1028C6.3473 18.4998 14.9897 16.7922 21.32 18.4886C30.8501 21.0426 38.9139 29.2954 52.957 26.724C58.5783 25.6947 63.3366 23.8598 67 21.985" stroke="#47093E" stroke-width="3"/>
<path d="M1 35.7217C6.3473 34.1187 14.9897 32.411 21.32 34.1075C30.8501 36.6615 38.9139 44.9143 52.957 42.3429C58.5783 41.3136 63.3366 39.4787 67 37.6039" stroke="#47093E" stroke-width="3"/> -->
<path d="M1 4.484C6.347 2.88 14.99 1.173 21.32 2.869c9.53 2.554 17.594 10.807 31.637 8.236A51.247 51.247 0 0067 6.365M1 20.103c5.347-1.603 13.99-3.31 20.32-1.614 9.53 2.554 17.594 10.806 31.637 8.235A51.247 51.247 0 0067 21.985M1 35.722c5.347-1.603 13.99-3.311 20.32-1.614 9.53 2.553 17.594 10.806 31.637 8.235A51.247 51.247 0 0067 37.603" stroke="#47093E" stroke-width="3"/> </svg>

<svg viewBox="0 0 28 27" id="facebook" xmlns="http://www.w3.org/2000/svg"><path d="M24.409.625H3.784A2.813 2.813 0 00.97 3.438v20.625a2.777 2.777 0 002.813 2.812h8.027v-8.906H8.12V13.75h3.691v-3.164c0-3.633 2.168-5.684 5.45-5.684 1.64 0 3.28.293 3.28.293V8.77h-1.816c-1.816 0-2.402 1.113-2.402 2.285v2.695h4.043l-.645 4.219h-3.398v8.906h8.086a2.813 2.813 0 002.812-2.813V3.438c0-1.523-1.289-2.812-2.812-2.812z"/></svg><svg viewBox="0 0 91 41" id="logo(2)" xmlns="http://www.w3.org/2000/svg"><g clip-path="url(#fa)"><path d="M5.72 11.654v5.343H.555V0h6.02c5.578 0 8.03 2.672 8.03 5.827s-2.452 5.827-8.03 5.827H5.72zm3.568-5.827a3.04 3.04 0 00-.18-1.142 2.845 2.845 0 00-.588-.965 2.569 2.569 0 00-.894-.626 2.391 2.391 0 00-1.05-.18H5.72V8.74h.856c.355.017.71-.047 1.042-.188.331-.14.633-.354.885-.628a2.84 2.84 0 00.579-.963c.13-.36.19-.747.175-1.134h.03zM15.502.083h4.684v5.261h.221a4.28 4.28 0 012.79-1.09c2.78 0 4.683 2.064 4.683 4.736v8.016h-4.684V8.99a1.805 1.805 0 00-.063-.661 1.713 1.713 0 00-.296-.581 1.555 1.555 0 00-.48-.41 1.432 1.432 0 00-.59-.171 2.23 2.23 0 00-1.528.832v8.99h-4.737V.083zM30.829 6.8a6.157 6.157 0 012.174-1.909 5.614 5.614 0 012.731-.637c3.683 0 5.898 2.405 5.898 5.469v3.637c.01 1.23.16 2.455.444 3.646H37.3l-.114-.974h-.222c-.771.84-1.813 1.321-2.903 1.34-2.79 0-4.684-2.064-4.684-4.37 0-2.064 1.895-4.162 4.684-4.162a5.014 5.014 0 012.903.833c0-1.665-.894-2.68-2.231-2.68a3.92 3.92 0 00-2.567 1.215L30.829 6.8zm6.112 5.228a2.94 2.94 0 00-1.528-.483c-.175 0-.35.038-.512.111a1.31 1.31 0 00-.433.316 1.472 1.472 0 00-.29.473 1.57 1.57 0 000 1.115c.067.176.165.337.29.472.124.135.271.243.433.316.163.073.336.11.512.11a2.29 2.29 0 001.528-.832v-1.598zM5.615 38.665a5.696 5.696 0 01-2.958-.706 6.303 6.303 0 01-2.284-2.166l1.337-1.498c.356.468.799.85 1.299 1.122.5.27 1.047.424 1.605.451 1.337 0 1.872-.608 1.872-1.215 0-1.216-5.44-.966-5.44-5.22 0-1.822 1.894-3.887 5.24-3.887a5.066 5.066 0 012.625.57 5.583 5.583 0 012.06 1.86l-1.345 1.458a3.34 3.34 0 00-1.065-.821 3.097 3.097 0 00-1.273-.311c-.894 0-1.452.616-1.452 1.098 0 1.216 5.463.974 5.463 5.22 0 2.006-1.895 4.045-5.684 4.045zm12.492-5.228c0 1.582.764 2.43 1.788 2.43a2.325 2.325 0 001.452-.723l1.115 1.664a5.141 5.141 0 01-1.731 1.356 4.747 4.747 0 01-2.09.467c-3.231 0-5.233-2.189-5.233-5.227v-4.578h-1.765l4.775-6.077h1.689v3.163h2.896l-.451 2.914h-2.445v4.611zm17.314 1.216c.01 1.227.16 2.45.443 3.637h-4.79l-.138-.965h-.221c-.804.858-1.885 1.34-3.01 1.34-2.79 0-4.684-2.064-4.684-4.736v-8.016h4.706v8.016a1.81 1.81 0 00.053.679c.06.22.162.424.299.599.136.175.304.317.494.418.189.101.395.158.606.168a2.29 2.29 0 001.528-.832v-9.048h4.684l.03 8.74zm14.938 0c.01 1.227.159 2.45.443 3.637h-4.79l-.115-.974h-.222c-.804.859-1.885 1.34-3.01 1.34a5.407 5.407 0 01-2.27-.507 5.829 5.829 0 01-1.907-1.432 6.434 6.434 0 01-1.242-2.13 6.85 6.85 0 01-.38-2.49 6.85 6.85 0 01.38-2.49 6.434 6.434 0 011.242-2.129 5.829 5.829 0 011.907-1.432 5.407 5.407 0 012.27-.508 4.92 4.92 0 012.788.832h.222v-4.994h4.684v13.277zm-4.684.25V28.95a2.876 2.876 0 00-1.528-.491c-1.337 0-2.453 1.215-2.453 3.646 0 2.43 1.085 3.687 2.4 3.687a2.282 2.282 0 001.58-.89zm9.711-10.447a2.118 2.118 0 01-1.209-.465 2.42 2.42 0 01-.774-1.113 2.636 2.636 0 01-.084-1.394 2.49 2.49 0 01.634-1.214 2.17 2.17 0 011.143-.634c.43-.084.872-.03 1.274.157.401.187.744.498.984.895.241.396.37.862.37 1.337a2.605 2.605 0 01-.709 1.74 2.192 2.192 0 01-1.629.69zm2.33 13.834h-4.683V26.154h4.683V38.29zm9.031-12.744c4.012 0 6.8 3.039 6.8 6.56 0 3.52-2.788 6.559-6.8 6.559-4.011 0-6.777-3.038-6.777-6.56 0-3.52 2.766-6.559 6.777-6.559zm0 10.447c1.001 0 2.01-1.09 2.01-3.887 0-2.797-1.009-3.888-2.01-3.888-1 0-2.01 1.09-2.01 3.888 0 2.797 1.01 3.887 2.01 3.887zM52.024 4.287h-.511c-1.118-.008-2.195.458-3.003 1.298h-.23l-.114-.965h-4.798l.45 3.637v8.749h4.692V8.257a3.28 3.28 0 012.002-.832 3.35 3.35 0 012.376.624l-.864-3.762zm9.298 4.703c0-1.215-.557-1.823-1.337-1.823-.282.017-.559.1-.81.243-.25.144-.469.345-.642.59v8.99h-4.676V6.25l-.39-2.089h3.386l1.436 1.424h.244c.372-.43.82-.77 1.32-1a3.613 3.613 0 011.576-.332 4.255 4.255 0 012.112.41c.664.317 1.25.801 1.709 1.413h.221c.43-.546.959-.99 1.553-1.304a4.493 4.493 0 011.9-.52 4.023 4.023 0 011.737.284 4.31 4.31 0 011.492 1.01c.43.443.771.977 1.004 1.569.233.592.353 1.23.352 1.874v8.016h-4.714V8.99c0-1.215-.558-1.823-1.337-1.823-.283.017-.56.1-.81.243-.25.144-.47.345-.642.59v8.99h-4.684v-8z"/><path opacity=".5" d="M85.903 14.642v-.491c0-.557.203-1.09.564-1.484.36-.393.85-.614 1.361-.614h.413c.253.004.504-.046.739-.147a1.9 1.9 0 00.631-.444 2.11 2.11 0 00.428-.673 2.257 2.257 0 00.015-1.619 2.12 2.12 0 00-.424-.693 1.92 1.92 0 00-.638-.459 1.787 1.787 0 00-.751-.152h-4.294c-.51.009-.995.237-1.35.635a2.201 2.201 0 00-.545 1.488v4.678c0 .556.203 1.09.564 1.483.36.393.85.614 1.361.614.255 0 .507-.055.742-.162a1.92 1.92 0 00.628-.46c.18-.198.32-.432.416-.69.095-.257.143-.533.14-.81z"/><path d="M82.036 5.286v.474c0 .556-.203 1.09-.564 1.483-.36.394-.85.615-1.361.615h-.436a1.79 1.79 0 00-.746.16 1.925 1.925 0 00-.631.463 2.11 2.11 0 00-.417.693 2.264 2.264 0 00-.139.815c0 .276.05.55.147.804.098.255.24.487.42.682.18.195.393.35.627.454.235.105.486.158.74.157h4.286c.51 0 1-.22 1.361-.614.361-.393.564-.927.564-1.483V5.286c0-.557-.203-1.09-.564-1.484a1.849 1.849 0 00-1.361-.614c-.511 0-1 .221-1.362.614a2.197 2.197 0 00-.564 1.484z"/></g><defs><clipPath id="fa"><path transform="translate(.373)" d="M0 0h89.823v41H0z"/></clipPath></defs></svg>

<svg viewBox="0 0 27 27" id="ok" xmlns="http://www.w3.org/2000/svg"><path d="M11.463 9.18c0 1.23 1.054 2.285 2.343 2.285 1.23 0 2.285-.996 2.285-2.285 0-1.348-1.054-2.344-2.285-2.344-1.289 0-2.343.996-2.343 2.344zM26.93 3.438c0-1.524-1.289-2.813-2.812-2.813H3.494A2.813 2.813 0 00.68 3.438v20.625a2.777 2.777 0 002.813 2.812h20.625a2.813 2.813 0 002.812-2.813V3.438zM9.001 9.18c0-2.637 2.169-4.805 4.805-4.805 2.578 0 4.746 2.168 4.746 4.805 0 2.578-2.168 4.687-4.746 4.687-2.636 0-4.804-2.11-4.804-4.687zm10.255 5.273c.468.938-.06 1.406-1.29 2.168-.996.645-2.343.879-3.28.996l.76.762 2.813 2.812c.997 1.055-.644 2.637-1.699 1.641-.703-.703-1.699-1.7-2.754-2.813l-2.812 2.813c-1.055.996-2.696-.645-1.64-1.64.702-.762 1.698-1.758 2.753-2.813l.762-.762c-.88-.117-2.285-.351-3.281-.996-1.23-.762-1.758-1.23-1.29-2.168.293-.527.997-.996 1.993-.176 0 0 1.347 1.055 3.515 1.055 2.11 0 3.457-1.055 3.457-1.055.996-.82 1.7-.351 1.992.176z"/></svg>
<svg viewBox="0 0 42 49" id="place" xmlns="http://www.w3.org/2000/svg">
<path d="M40.4076 20.7226C40.4076 23.1725 39.281 26.0841 37.3889 29.1885C35.5166 32.2604 32.9972 35.3569 30.4418 38.1382C27.8918 40.9137 25.3368 43.3423 23.4169 45.0785C22.5041 45.904 21.737 46.571 21.1851 47.0423C20.6331 46.571 19.8661 45.904 18.9533 45.0785C17.0333 43.3423 14.4784 40.9137 11.9284 38.1382C9.37301 35.3569 6.85357 32.2604 4.98127 29.1885C3.08915 26.0841 1.96252 23.1725 1.96252 20.7226C1.96252 10.1062 10.5688 1.5 21.1851 1.5C31.8014 1.5 40.4076 10.1062 40.4076 20.7226Z" stroke="#47093E" stroke-width="3"/>
<path d="M15.7653 28.6349L21.5618 13.564L27.3583 28.6349" stroke="#47093E" stroke-width="3" stroke-linejoin="bevel"/>
<path d="M17.4739 23.6926H25.6494" stroke="#47093E" stroke-width="3" stroke-linejoin="bevel"/>
<!-- <path d="M40.408 20.723c0 2.45-1.127 5.361-3.02 8.466-1.871 3.071-4.39 6.168-6.946 8.95-2.55 2.775-5.105 5.203-7.025 6.94-.913.825-1.68 1.492-2.232 1.963a105.114 105.114 0 01-2.232-1.964c-1.92-1.736-4.475-4.164-7.025-6.94-2.555-2.781-5.074-5.878-6.947-8.95-1.892-3.104-3.018-6.015-3.018-8.465C1.963 10.106 10.569 1.5 21.185 1.5c10.616 0 19.223 8.606 19.223 19.223z"/><path d="M15.765 28.635l5.797-15.071 5.796 15.07m-9.884-4.941h8.175"/>-->
</svg> 

<svg viewBox="0 0 68 81" id="place2" xmlns="http://www.w3.org/2000/svg"><path d="M67.462 33.98c0 4.556-2.068 9.704-5.237 14.903-3.162 5.188-7.386 10.371-11.622 14.982-4.234 4.608-8.47 8.634-11.648 11.508a173.522 173.522 0 01-3.838 3.374c-.463.394-.827.698-1.074.904l-.062.052-.062-.052c-.248-.206-.611-.51-1.074-.904-.926-.789-2.25-1.937-3.838-3.374-3.178-2.874-7.414-6.9-11.648-11.508-4.236-4.61-8.46-9.794-11.623-14.982C2.568 43.684.5 38.535.5 33.981.5 15.49 15.49.5 33.98.5c18.492 0 33.482 14.99 33.482 33.48z"/><path d="M25.093 46.955L34.6 22.242l9.505 24.713m-16.21-8.104h13.406"/></svg><svg viewBox="0 0 75 75" id="play" xmlns="http://www.w3.org/2000/svg"><g filter="url(#ja)"><circle cx="37.5" cy="33.5" r="33"/><path d="M29.96 20.44L52.58 33.5 29.96 46.56V20.44z"/></g><defs><filter id="ja" x="0" y="0" width="75" height="75" filterUnits="userSpaceOnUse" color-interpolation-filters="sRGB"><feFlood flood-opacity="0" result="BackgroundImageFix"/><feColorMatrix in="SourceAlpha" values="0 0 0 0 0 0 0 0 0 0 0 0 0 0 0 0 0 0 127 0" result="hardAlpha"/><feOffset dy="4"/><feGaussianBlur stdDeviation="2"/><feComposite in2="hardAlpha" operator="out"/><feColorMatrix values="0 0 0 0 0 0 0 0 0 0 0 0 0 0 0 0 0 0 0.25 0"/><feBlend in2="BackgroundImageFix" result="effect1_dropShadow_2_65"/><feColorMatrix in="SourceAlpha" values="0 0 0 0 0 0 0 0 0 0 0 0 0 0 0 0 0 0 127 0" result="hardAlpha"/><feOffset dy="4"/><feGaussianBlur stdDeviation="2"/><feComposite in2="hardAlpha" operator="out"/><feColorMatrix values="0 0 0 0 0 0 0 0 0 0 0 0 0 0 0 0 0 0 0.25 0"/><feBlend in2="effect1_dropShadow_2_65" result="effect2_dropShadow_2_65"/><feBlend in="SourceGraphic" in2="effect2_dropShadow_2_65" result="shape"/></filter></defs></svg>
<svg viewBox="0 0 48 50" id="search" xmlns="http://www.w3.org/2000/svg">
<circle cx="20.5" cy="20.5" r="19" stroke="#47093E" stroke-width="3"/>
<line x1="46.9393" y1="48.0607" x2="33.9393" y2="35.0607" stroke="#47093E" stroke-width="3"/>
<!-- <circle cx="20.5" cy="20.5" r="19"/><path d="M46.939 48.061l-13-13"/> -->
</svg>

<svg viewBox="0 0 68 59" id="square" xmlns="http://www.w3.org/2000/svg"><path d="M59.625 1.293H1v50.25"/><path d="M9.875 8.972H67.5v49.25H9.875z"/></svg>
<svg viewBox="0 0 68 58" id="tablet" xmlns="http://www.w3.org/2000/svg"><path d="M67 55.008v-53h-9"/><rect x=".5" y=".508" width="28.776" height="56" rx="14.388"/><path d="M0 27.582h28.925m13.721 5.995l11-11m0 10.861l-11-11"/></svg>
<svg viewBox="0 0 31 25" id="twitter" xmlns="http://www.w3.org/2000/svg"><path d="M27.808 6.656c1.172-.879 2.226-1.933 3.047-3.164-1.055.469-2.286.82-3.516.938a6.011 6.011 0 002.695-3.399 12.995 12.995 0 01-3.867 1.524A6.153 6.153 0 0021.655.62a6.152 6.152 0 00-6.152 6.152c0 .47.059.938.176 1.407A17.85 17.85 0 012.964 1.734c-.527.88-.82 1.934-.82 3.106a6.053 6.053 0 002.753 5.098c-.996-.06-1.992-.293-2.812-.762v.058c0 2.989 2.11 5.45 4.922 6.036-.469.117-1.055.234-1.582.234-.41 0-.762-.059-1.172-.117.762 2.46 3.047 4.218 5.742 4.277-2.11 1.64-4.746 2.637-7.617 2.637-.527 0-.996-.059-1.465-.117 2.695 1.757 5.918 2.753 9.434 2.753 11.308 0 17.46-9.316 17.46-17.46v-.82z"/></svg><svg viewBox="0 0 33 20" id="vk" xmlns="http://www.w3.org/2000/svg"><path d="M31.369 1.664c.176-.703 0-1.289-1.055-1.289h-3.457c-.879 0-1.289.469-1.523.996 0 0-1.758 4.277-4.219 7.09-.82.762-1.172 1.055-1.64 1.055-.176 0-.528-.293-.528-.996V1.664c0-.879-.234-1.289-.996-1.289h-5.39c-.587 0-.88.41-.88.82 0 .82 1.23.996 1.348 3.34v5.098c0 1.113-.176 1.348-.645 1.348-1.171 0-3.984-4.336-5.683-9.258C6.349.785 5.998.375 5.119.375H1.662C.724.375.49.844.49 1.371c0 .938 1.172 5.45 5.45 11.484 2.87 4.102 6.913 6.27 10.546 6.27 2.168 0 2.461-.469 2.461-1.29 0-3.925-.176-4.335.879-4.335.527 0 1.406.293 3.457 2.285 2.344 2.344 2.754 3.34 4.043 3.34h3.457c.996 0 1.465-.469 1.172-1.465-.645-1.992-5.04-6.21-5.274-6.504-.527-.644-.351-.937 0-1.523 0 0 4.22-5.977 4.688-7.969z"/></svg></svg>